<svg width="122" height="39" viewBox="0 0 122 39" fill="none" xmlns="http://www.w3.org/2000/svg">
<path d="M0.537109 1.83594H2.44141L15.4053 34.624L28.3691 1.83594H30.249L16.3574 36.9922H14.4531L0.537109 1.83594ZM4.32129 1.83594H6.20117L16.626 28.2031L15.625 30.4492L4.32129 1.83594ZM8.10547 1.83594H10.0098L18.5059 23.3936L17.5781 25.8105L8.10547 1.83594ZM11.8896 1.83594H13.7695L20.3613 18.5107L19.4336 20.9766L11.8896 1.83594ZM39.6973 1.83594H41.6016L27.6855 36.9922H25.8057L39.6973 1.83594ZM35.9375 1.83594H37.8174L23.9014 36.9922H22.0215L35.9375 1.83594ZM32.1289 1.83594H34.0332L20.1172 36.9922H18.2373L32.1289 1.83594ZM55.542 14.458C54.1748 15.8252 53.4912 17.4772 53.4912 19.4141C53.4912 21.3509 54.1748 23.0111 55.542 24.3945C56.9255 25.7617 58.5856 26.4453 60.5225 26.4453C62.4593 26.4453 64.1113 25.7617 65.4785 24.3945C66.862 23.0111 67.5537 21.3509 67.5537 19.4141C67.5537 17.4772 66.862 15.8252 65.4785 14.458C64.1113 13.0745 62.4593 12.3828 60.5225 12.3828C58.5856 12.3828 56.9255 13.0745 55.542 14.458ZM54.2969 25.6396C52.5879 23.9144 51.7334 21.8392 51.7334 19.4141C51.7334 16.9889 52.5879 14.9219 54.2969 13.2129C56.0221 11.4876 58.0973 10.625 60.5225 10.625C62.9476 10.625 65.0146 11.4876 66.7236 13.2129C68.4489 14.9219 69.3115 16.9889 69.3115 19.4141C69.3115 21.8392 68.4489 23.9144 66.7236 25.6396C65.0146 27.3486 62.9476 28.2031 60.5225 28.2031C58.0973 28.2031 56.0221 27.3486 54.2969 25.6396ZM53.0518 11.9678C51.001 14.0348 49.9756 16.5169 49.9756 19.4141C49.9756 22.3112 51.001 24.7933 53.0518 26.8604C55.1188 28.9274 57.609 29.9609 60.5225 29.9609C63.4359 29.9609 65.918 28.9274 67.9688 26.8604C70.0358 24.7933 71.0693 22.3112 71.0693 19.4141C71.0693 16.5169 70.0358 14.0348 67.9688 11.9678C65.918 9.90072 63.4359 8.86719 60.5225 8.86719C57.609 8.86719 55.1188 9.90072 53.0518 11.9678ZM49.8535 25.5908C48.763 23.7028 48.2178 21.6439 48.2178 19.4141C48.2178 17.1842 48.763 15.1253 49.8535 13.2373C50.9603 11.3493 52.4577 9.86003 54.3457 8.76953C56.2337 7.66276 58.2926 7.10938 60.5225 7.10938C62.7523 7.10938 64.8112 7.66276 66.6992 8.76953C68.5872 9.86003 70.0765 11.3493 71.167 13.2373C72.2738 15.1253 72.8271 17.1842 72.8271 19.4141C72.8271 21.6439 72.2738 23.7028 71.167 25.5908C70.0765 27.4788 68.5872 28.9762 66.6992 30.083C64.8112 31.1735 62.7523 31.7188 60.5225 31.7188C58.2926 31.7188 56.2337 31.1735 54.3457 30.083C52.4577 28.9762 50.9603 27.4788 49.8535 25.5908ZM47.5586 13.9697C46.8262 15.695 46.46 17.5098 46.46 19.4141C46.46 21.3184 46.8262 23.1413 47.5586 24.8828C48.3073 26.6081 49.3083 28.1055 50.5615 29.375C51.8311 30.6283 53.3285 31.6292 55.0537 32.3779C56.7952 33.1104 58.6182 33.4766 60.5225 33.4766C62.4268 33.4766 64.2415 33.1104 65.9668 32.3779C67.7083 31.6292 69.2057 30.6283 70.459 29.375C71.7285 28.1055 72.7295 26.6081 73.4619 24.8828C74.2106 23.1413 74.585 21.3184 74.585 19.4141C74.585 17.5098 74.2106 15.695 73.4619 13.9697C72.7295 12.2282 71.7285 10.7308 70.459 9.47754C69.2057 8.20801 67.7083 7.20703 65.9668 6.47461C64.2415 5.72591 62.4268 5.35156 60.5225 5.35156C58.6182 5.35156 56.7952 5.72591 55.0537 6.47461C53.3285 7.20703 51.8311 8.20801 50.5615 9.47754C49.3083 10.7308 48.3073 12.2282 47.5586 13.9697ZM45.9473 25.5664C45.1172 23.6133 44.7021 21.5625 44.7021 19.4141C44.7021 17.2656 45.1172 15.2148 45.9473 13.2617C46.7936 11.3086 47.9167 9.63216 49.3164 8.23242C50.7324 6.81641 52.417 5.69336 54.3701 4.86328C56.3232 4.01693 58.374 3.59375 60.5225 3.59375C62.6709 3.59375 64.7217 4.01693 66.6748 4.86328C68.6279 5.69336 70.3044 6.81641 71.7041 8.23242C73.1201 9.63216 74.2432 11.3086 75.0732 13.2617C75.9196 15.2148 76.3428 17.2656 76.3428 19.4141C76.3428 21.5625 75.9196 23.6133 75.0732 25.5664C74.2432 27.5195 73.1201 29.2041 71.7041 30.6201C70.3044 32.0199 68.6279 33.1429 66.6748 33.9893C64.7217 34.8193 62.6709 35.2344 60.5225 35.2344C58.374 35.2344 56.3232 34.8193 54.3701 33.9893C52.417 33.1429 50.7324 32.0199 49.3164 30.6201C47.9167 29.2041 46.7936 27.5195 45.9473 25.5664ZM44.3359 12.6025C43.4082 14.7673 42.9443 17.0378 42.9443 19.4141C42.9443 21.7904 43.4082 24.069 44.3359 26.25C45.2637 28.4147 46.5088 30.2865 48.0713 31.8652C49.6501 33.4277 51.5218 34.6729 53.6865 35.6006C55.8675 36.5283 58.1462 36.9922 60.5225 36.9922C62.8988 36.9922 65.1693 36.5283 67.334 35.6006C69.515 34.6729 71.3867 33.4277 72.9492 31.8652C74.528 30.2865 75.7812 28.4147 76.709 26.25C77.6367 24.069 78.1006 21.7904 78.1006 19.4141C78.1006 17.0378 77.6367 14.7673 76.709 12.6025C75.7812 10.4215 74.528 8.5498 72.9492 6.9873C71.3867 5.40853 69.515 4.15527 67.334 3.22754C65.1693 2.2998 62.8988 1.83594 60.5225 1.83594C58.1462 1.83594 55.8675 2.2998 53.6865 3.22754C51.5218 4.15527 49.6501 5.40853 48.0713 6.9873C46.5088 8.5498 45.2637 10.4215 44.3359 12.6025ZM42.7246 26.9336C41.6992 24.541 41.1865 22.0345 41.1865 19.4141C41.1865 16.7936 41.6992 14.2952 42.7246 11.9189C43.75 9.52637 45.1253 7.46745 46.8506 5.74219C48.5758 4.01693 50.6266 2.6416 53.0029 1.61621C55.3955 0.59082 57.902 0.078125 60.5225 0.078125C63.1429 0.078125 65.6413 0.59082 68.0176 1.61621C70.4102 2.6416 72.4691 4.01693 74.1943 5.74219C75.9196 7.46745 77.2949 9.52637 78.3203 11.9189C79.3457 14.2952 79.8584 16.7936 79.8584 19.4141C79.8584 22.0345 79.3457 24.541 78.3203 26.9336C77.2949 29.3099 75.9196 31.3607 74.1943 33.0859C72.4691 34.8112 70.4102 36.1865 68.0176 37.2119C65.6413 38.2373 63.1429 38.75 60.5225 38.75C57.902 38.75 55.3955 38.2373 53.0029 37.2119C50.6266 36.1865 48.5758 34.8112 46.8506 33.0859C45.1253 31.3607 43.75 29.3099 42.7246 26.9336ZM112.915 13.9453L111.499 15.0195C110.083 13.2617 108.26 12.3828 106.03 12.3828C104.093 12.3828 102.433 13.0745 101.05 14.458C99.6826 15.8252 98.999 17.4772 98.999 19.4141C98.999 21.3509 99.6826 23.0111 101.05 24.3945C102.433 25.7617 104.093 26.4453 106.03 26.4453C107.121 26.4453 108.138 26.2093 109.082 25.7373C110.042 25.2653 110.856 24.6143 111.523 23.7842L112.891 24.9316C112.077 25.957 111.068 26.7627 109.863 27.3486C108.659 27.9183 107.381 28.2031 106.03 28.2031C103.605 28.2031 101.53 27.3486 99.8047 25.6396C98.0957 23.9144 97.2412 21.8392 97.2412 19.4141C97.2412 16.9889 98.0957 14.9219 99.8047 13.2129C101.53 11.4876 103.605 10.625 106.03 10.625C107.397 10.625 108.683 10.9261 109.888 11.5283C111.092 12.1143 112.101 12.9199 112.915 13.9453ZM115.649 11.748L114.258 12.8223C113.281 11.5853 112.069 10.6169 110.62 9.91699C109.188 9.21712 107.658 8.86719 106.03 8.86719C103.117 8.86719 100.627 9.90072 98.5596 11.9678C96.5088 14.0348 95.4834 16.5169 95.4834 19.4141C95.4834 22.3112 96.5088 24.7933 98.5596 26.8604C100.627 28.9274 103.117 29.9609 106.03 29.9609C107.658 29.9609 109.196 29.611 110.645 28.9111C112.093 28.195 113.306 27.2184 114.282 25.9814L115.625 27.1045C114.486 28.5368 113.078 29.668 111.401 30.498C109.725 31.3118 107.935 31.7188 106.03 31.7188C103.8 31.7188 101.742 31.1735 99.8535 30.083C97.9655 28.9762 96.4681 27.4788 95.3613 25.5908C94.2708 23.7028 93.7256 21.6439 93.7256 19.4141C93.7256 17.1842 94.2708 15.1253 95.3613 13.2373C96.4681 11.3493 97.9655 9.86003 99.8535 8.76953C101.742 7.66276 103.8 7.10938 106.03 7.10938C107.935 7.10938 109.725 7.52441 111.401 8.35449C113.094 9.16829 114.51 10.2995 115.649 11.748ZM118.408 9.55078L117.041 10.6494C115.723 9.00553 114.103 7.71159 112.183 6.76758C110.262 5.82357 108.211 5.35156 106.03 5.35156C104.126 5.35156 102.303 5.72591 100.562 6.47461C98.8363 7.20703 97.3389 8.20801 96.0693 9.47754C94.8161 10.7308 93.8151 12.2282 93.0664 13.9697C92.334 15.695 91.9678 17.5098 91.9678 19.4141C91.9678 21.3184 92.334 23.1413 93.0664 24.8828C93.8151 26.6081 94.8161 28.1055 96.0693 29.375C97.3389 30.6283 98.8363 31.6292 100.562 32.3779C102.303 33.1104 104.126 33.4766 106.03 33.4766C108.211 33.4766 110.262 33.0046 112.183 32.0605C114.103 31.1165 115.723 29.8226 117.041 28.1787L118.359 29.3262C116.878 31.1654 115.063 32.6139 112.915 33.6719C110.767 34.7135 108.472 35.2344 106.03 35.2344C103.882 35.2344 101.831 34.8193 99.8779 33.9893C97.9248 33.1429 96.2402 32.0199 94.8242 30.6201C93.4245 29.2041 92.3014 27.5195 91.4551 25.5664C90.625 23.6133 90.21 21.5625 90.21 19.4141C90.21 17.2656 90.625 15.2148 91.4551 13.2617C92.3014 11.3086 93.4245 9.63216 94.8242 8.23242C96.2402 6.81641 97.9248 5.69336 99.8779 4.86328C101.831 4.01693 103.882 3.59375 106.03 3.59375C108.488 3.59375 110.791 4.12272 112.939 5.18066C115.104 6.23861 116.927 7.69531 118.408 9.55078ZM121.143 7.35352L119.727 8.40332C118.083 6.36882 116.064 4.76562 113.672 3.59375C111.296 2.42188 108.748 1.83594 106.03 1.83594C103.654 1.83594 101.375 2.2998 99.1943 3.22754C97.0296 4.15527 95.1579 5.40853 93.5791 6.9873C92.0166 8.5498 90.7715 10.4215 89.8438 12.6025C88.916 14.7673 88.4521 17.0378 88.4521 19.4141C88.4521 21.7904 88.916 24.069 89.8438 26.25C90.7715 28.4147 92.0166 30.2865 93.5791 31.8652C95.1579 33.4277 97.0296 34.6729 99.1943 35.6006C101.375 36.5283 103.654 36.9922 106.03 36.9922C108.748 36.9922 111.296 36.4062 113.672 35.2344C116.064 34.0625 118.083 32.4593 119.727 30.4248L121.118 31.499C119.312 33.7451 117.09 35.5192 114.453 36.8213C111.833 38.1071 109.025 38.75 106.03 38.75C103.41 38.75 100.903 38.2373 98.5107 37.2119C96.1344 36.1865 94.0837 34.8112 92.3584 33.0859C90.6331 31.3607 89.2578 29.3099 88.2324 26.9336C87.207 24.541 86.6943 22.0345 86.6943 19.4141C86.6943 16.7936 87.207 14.2952 88.2324 11.9189C89.2578 9.52637 90.6331 7.46745 92.3584 5.74219C94.0837 4.01693 96.1344 2.6416 98.5107 1.61621C100.903 0.59082 103.41 0.078125 106.03 0.078125C109.025 0.078125 111.841 0.729167 114.478 2.03125C117.114 3.31706 119.336 5.09115 121.143 7.35352Z" fill="#1D1D1D"/>
</svg>
