<svg width="16" height="16" viewBox="0 0 16 16" fill="none" xmlns="http://www.w3.org/2000/svg">
<path d="M12.175 9.10362H1C0.716667 9.10362 0.479167 9.00779 0.2875 8.81612C0.0958333 8.62446 0 8.38696 0 8.10362C0 7.82029 0.0958333 7.58279 0.2875 7.39112C0.479167 7.19946 0.716667 7.10362 1 7.10362H12.175L7.275 2.20362C7.075 2.00362 6.97917 1.77029 6.9875 1.50363C6.99583 1.23696 7.1 1.00363 7.3 0.803625C7.5 0.620292 7.73333 0.524458 8 0.516125C8.26667 0.507792 8.5 0.603625 8.7 0.803625L15.3 7.40362C15.4 7.50362 15.4708 7.61196 15.5125 7.72862C15.5542 7.84529 15.575 7.97029 15.575 8.10362C15.575 8.23696 15.5542 8.36196 15.5125 8.47862C15.4708 8.59529 15.4 8.70362 15.3 8.80362L8.7 15.4036C8.51667 15.587 8.2875 15.6786 8.0125 15.6786C7.7375 15.6786 7.5 15.587 7.3 15.4036C7.1 15.2036 7 14.9661 7 14.6911C7 14.4161 7.1 14.1786 7.3 13.9786L12.175 9.10362Z" fill="#242424ff"/>
</svg>
