<svg width="15" height="15" viewBox="0 0 15 15" fill="none" xmlns="http://www.w3.org/2000/svg">
<path fill-rule="evenodd" clip-rule="evenodd" d="M4.74157 0.533176C3.60205 0.584591 2.61438 0.863189 1.81686 1.65735C1.01655 2.45567 0.741411 3.44726 0.689868 4.57492C0.657828 5.27876 0.470473 10.5961 1.01376 11.9905C1.38014 12.9313 2.10172 13.6546 3.05109 14.0222C3.49408 14.1945 3.99977 14.3111 4.74157 14.3452C10.9441 14.6259 13.2434 14.4731 14.2129 11.9905C14.385 11.5487 14.5034 11.0434 14.5361 10.3034C14.8196 4.08496 14.4902 2.73707 13.4092 1.65735C12.5517 0.802044 11.5432 0.219821 4.74157 0.533176ZM4.79867 13.0946C4.11956 13.064 3.7511 12.9508 3.50523 12.8556C2.88671 12.6152 2.42213 12.1526 2.18322 11.5377C1.76948 10.4781 1.90671 5.44563 1.94362 4.63132C1.97984 3.83368 2.14143 3.1047 2.70423 2.54192C3.40075 1.84711 4.30066 1.50659 10.428 1.78313C11.2276 1.81925 11.9583 1.98052 12.5225 2.54192C13.219 3.23672 13.5645 4.14355 13.2831 10.2474C13.2524 10.9248 13.1389 11.2924 13.0435 11.5377C12.4131 13.1531 10.9629 13.3773 4.79867 13.0946ZM10.4956 3.73C10.4956 4.18997 10.8696 4.56399 11.3314 4.56399C11.7932 4.56399 12.1679 4.18997 12.1679 3.73C12.1679 3.27005 11.7932 2.89636 11.3314 2.89636C10.8696 2.89636 10.4956 3.27005 10.4956 3.73ZM4.03668 7.43884C4.03668 9.4093 5.638 11.0069 7.61335 11.0069C9.5887 11.0069 11.19 9.4093 11.19 7.43884C11.19 5.46838 9.5887 3.87185 7.61335 3.87185C5.638 3.87185 4.03668 5.46838 4.03668 7.43884ZM5.29182 7.43884C5.29182 6.16041 6.33104 5.12317 7.61335 5.12317C8.89565 5.12317 9.93488 6.16041 9.93488 7.43884C9.93488 8.71797 8.89565 9.75554 7.61335 9.75554C6.33104 9.75554 5.29182 8.71797 5.29182 7.43884Z" fill="white"/>
</svg>
