<svg width="15" height="15" viewBox="0 0 15 15" fill="none" xmlns="http://www.w3.org/2000/svg">
<g clip-path="url(#clip0_2083_1848)">
<path d="M10.9219 8.3686C10.7556 8.28985 9.9594 7.8961 9.81065 7.83485C9.6619 7.7736 9.5569 7.7561 9.44315 7.92235C9.3294 8.0886 9.02315 8.44735 8.9269 8.5611C8.83065 8.67485 8.74315 8.6836 8.5769 8.5611C8.09939 8.36947 7.65838 8.09717 7.27315 7.7561C6.92442 7.42777 6.62918 7.04692 6.39815 6.62735C6.3019 6.46985 6.39815 6.38235 6.46815 6.29485C6.53815 6.20735 6.62565 6.1111 6.71315 6.01485C6.77713 5.93161 6.83007 5.84044 6.87065 5.7436C6.89235 5.69857 6.90363 5.64922 6.90363 5.59923C6.90363 5.54923 6.89235 5.49989 6.87065 5.45485C6.87065 5.3761 6.50315 4.57985 6.36315 4.2561C6.22315 3.93235 6.10065 3.9761 6.0044 3.9761H5.6544C5.48767 3.9826 5.33032 4.05498 5.2169 4.17735C5.03381 4.35206 4.88879 4.56271 4.79092 4.79609C4.69305 5.02948 4.64444 5.28056 4.64815 5.5336C4.6929 6.15483 4.92133 6.74874 5.3044 7.23985C6.00735 8.28411 6.96906 9.12824 8.09565 9.68985C8.48065 9.8561 8.77815 9.95235 9.0144 10.0311C9.34615 10.1314 9.69681 10.1524 10.0381 10.0924C10.2649 10.0464 10.4797 9.95428 10.6693 9.82183C10.859 9.68937 11.0194 9.51937 11.1406 9.32235C11.2415 9.07905 11.2748 8.813 11.2369 8.55235C11.1931 8.4911 11.0881 8.44735 10.9219 8.3686Z" fill="white"/>
<path d="M12.5583 2.40968C11.9532 1.79882 11.2318 1.31534 10.4369 0.987726C9.64189 0.660116 8.78936 0.495021 7.92955 0.502176C6.79056 0.508137 5.67306 0.812829 4.68868 1.38582C3.70429 1.95882 2.88746 2.78005 2.31978 3.76752C1.7521 4.75498 1.45344 5.8741 1.45362 7.01311C1.4538 8.15212 1.75281 9.27114 2.3208 10.2584L1.4458 13.6272L4.8933 12.7522C5.84638 13.2708 6.91451 13.5416 7.99955 13.5397H7.92955C9.22273 13.5481 10.4891 13.1712 11.5672 12.457C12.6453 11.7428 13.4863 10.7237 13.9829 9.52963C14.4795 8.33557 14.6092 7.02067 14.3554 5.75259C14.1017 4.48452 13.4761 3.32075 12.5583 2.40968ZM7.92955 12.4197C6.95878 12.4204 6.00607 12.1573 5.1733 11.6584L4.9808 11.5447L2.9333 12.0784L3.4758 10.0834L3.3533 9.88218C2.65449 8.75678 2.39309 7.41402 2.61869 6.10866C2.8443 4.80331 3.54122 3.62618 4.57722 2.80061C5.61322 1.97505 6.91622 1.55849 8.239 1.62998C9.56178 1.70147 10.8123 2.25602 11.7533 3.18843C12.2578 3.68883 12.6576 4.28463 12.9295 4.94111C13.2014 5.59759 13.34 6.30162 13.3371 7.01218C13.3347 8.44562 12.7643 9.8197 11.7507 10.8333C10.7371 11.8469 9.363 12.4174 7.92955 12.4197Z" fill="white"/>
</g>
<defs>
<clipPath id="clip0_2083_1848">
<rect width="14" height="14" fill="white" transform="translate(0.929688 0.0644531)"/>
</clipPath>
</defs>
</svg>
