<svg width="14" height="15" viewBox="0 0 14 15" fill="none" xmlns="http://www.w3.org/2000/svg">
<path d="M6.61504 8.8998L1.71504 13.7998C1.53171 13.9831 1.29837 14.0748 1.01504 14.0748C0.731706 14.0748 0.498372 13.9831 0.315039 13.7998C0.131706 13.6165 0.0400391 13.3831 0.0400391 13.0998C0.0400391 12.8165 0.131706 12.5831 0.315039 12.3998L5.21504 7.4998L0.315039 2.5998C0.131706 2.41647 0.0400391 2.18314 0.0400391 1.8998C0.0400391 1.61647 0.131706 1.38314 0.315039 1.1998C0.498372 1.01647 0.731706 0.924805 1.01504 0.924805C1.29837 0.924805 1.53171 1.01647 1.71504 1.1998L6.61504 6.0998L11.515 1.1998C11.6984 1.01647 11.9317 0.924805 12.215 0.924805C12.4984 0.924805 12.7317 1.01647 12.915 1.1998C13.0984 1.38314 13.19 1.61647 13.19 1.8998C13.19 2.18314 13.0984 2.41647 12.915 2.5998L8.01504 7.4998L12.915 12.3998C13.0984 12.5831 13.19 12.8165 13.19 13.0998C13.19 13.3831 13.0984 13.6165 12.915 13.7998C12.7317 13.9831 12.4984 14.0748 12.215 14.0748C11.9317 14.0748 11.6984 13.9831 11.515 13.7998L6.61504 8.8998Z" fill="#E3E3E3"/>
</svg>
